#N canvas 0 0 240 300 10;
#X obj 32 185 dumpOSC 5550;
#X obj 32 217 OSCroute /hello;
#X obj 32 239 print;
#X obj 133 238 print;
#X obj 26 87 sendOSC;
#X msg 50 43 connect localhost 5550;
#X msg 21 13 send /hello PDa;
#X connect 0 0 1 0;
#X connect 1 0 2 0;
#X connect 1 1 3 0;
#X connect 5 0 4 0;
#X connect 6 0 4 0;
#N canvas 0 0 240 300 10;
#X obj 32 185 dumpOSC 5550;
#X obj 32 217 OSCroute /hello;
#X obj 32 239 print;
#X obj 133 238 print;
#X obj 26 87 sendOSC;
#X msg 50 43 connect localhost 5550;
#X msg 21 13 send /hello PDa;
#X connect 0 0 1 0;
#X connect 1 0 2 0;
#X connect 1 1 3 0;
#X connect 5 0 4 0;
#X connect 6 0 4 0;
