#N canvas 0 0 240 300 10;
#X obj 38 93 noise~;
#X obj 44 161 vcf~;
#X obj 48 191 dac~;
#X floatatom 138 33 5 0 0 0 - - -;
#X obj 44 18 osc~ 1;
#X obj 46 75 *~ 800;
#X obj 48 48 +~ 2;
#X obj 106 125 sig~;
#X floatatom 132 77 5 0 0 0 - - -;
#X connect 0 0 1 0;
#X connect 1 0 2 0;
#X connect 1 0 2 1;
#X connect 3 0 1 2;
#X connect 4 0 6 0;
#X connect 6 0 5 0;
#X connect 7 0 1 1;
#X connect 8 0 7 0;

