#N canvas 0 0 240 300 10;
#X obj 57 84 clip~ -0.1 0.1;
#X obj 58 61 sig~;
#X obj 57 111 snapshot~;
#X floatatom 58 19 5 0 0 0 - - -;
#X floatatom 57 144 5 0 0 0 - - -;
#X obj 58 37 t f b;
#X connect 0 0 2 0;
#X connect 1 0 0 0;
#X connect 2 0 4 0;
#X connect 3 0 5 0;
#X connect 5 0 1 0;
#X connect 5 1 2 0;
#N canvas 0 0 240 300 10;
#X obj 57 84 clip~ -0.1 0.1;
#X obj 58 61 sig~;
#X obj 57 111 snapshot~;
#X floatatom 58 19 5 0 0 0 - - -;
#X floatatom 57 144 5 0 0 0 - - -;
#X obj 58 37 t f b;
#X connect 0 0 2 0;
#X connect 1 0 0 0;
#X connect 2 0 4 0;
#X connect 3 0 5 0;
#X connect 5 0 1 0;
#X connect 5 1 2 0;
